<svg xmlns="http://www.w3.org/2000/svg" width="281.615" height="283.781" viewBox="0 0 281.615 283.781">
  <g id="Grupo_13786" data-name="Grupo 13786" transform="translate(-399.896 -2829.482)">
    <ellipse id="Elipse_326" data-name="Elipse 326" cx="140.808" cy="141.891" rx="140.808" ry="141.891" transform="translate(399.896 2829.482)" fill="#fff"/>
    <g id="Grupo_13782" data-name="Grupo 13782" transform="translate(458.421 2888.615)">
      <path id="Trazado_7877" data-name="Trazado 7877" d="M-602.647,834.576a103.611,103.611,0,0,1,13.954,2.481c1.349.37,2.713.7,4.024,1.182a4.232,4.232,0,0,1,2.811,5.261,4.184,4.184,0,0,1-5.348,2.879,77.059,77.059,0,0,0-23.876-3.318,72.886,72.886,0,0,0-43.948,15.62c-15.542,12.15-24.832,28.136-27.88,47.583a74.108,74.108,0,0,0,37.668,76.108,72.692,72.692,0,0,0,40.567,9.055,74.114,74.114,0,0,0,68.05-59.518,72.831,72.831,0,0,0-1.5-35.286c-.149-.517-.3-1.034-.425-1.557a4.234,4.234,0,0,1,2.927-5.329,4.2,4.2,0,0,1,5.249,2.83,60.272,60.272,0,0,1,2.388,9.542c4.162,24.39-1.035,46.612-16.2,66.156-13.308,17.147-30.959,27.622-52.448,30.784-28.56,4.2-53.145-4.336-73.16-25.1-12.352-12.813-19.447-28.386-21.812-46.064-.171-1.276-.351-2.55-.527-3.825V910.495c.428-2.92.665-5.883,1.312-8.754q11.272-50.063,60.511-64.64a88.379,88.379,0,0,1,14.1-2.524Z" transform="translate(692.134 -834.576)" fill="#1c549a"/>
      <path id="Trazado_7878" data-name="Trazado 7878" d="M-557.07,919.177a48.923,48.923,0,0,0-48.24,40.838,49.307,49.307,0,0,0,38.388,56.429,49.338,49.338,0,0,0,58.648-39.38,53.4,53.4,0,0,0,.6-12.059,4.4,4.4,0,0,1,1.771-4.1,4.012,4.012,0,0,1,4.277-.416,4.405,4.405,0,0,1,2.549,4,54.406,54.406,0,0,1-6.858,31.385c-8.679,15.6-21.867,25.364-39.349,29.075-24.167,5.13-49.6-6.533-61.733-28.084a56.977,56.977,0,0,1-7.511-31.6,57.838,57.838,0,0,1,47.745-54,46.25,46.25,0,0,1,13.806-.669,4.576,4.576,0,0,1,4.2,4.847c-.126,2.3-1.908,3.753-4.579,3.734C-554.6,919.169-555.833,919.177-557.07,919.177Z" transform="translate(639.708 -885.812)" fill="#1c549a"/>
      <path id="Trazado_7879" data-name="Trazado 7879" d="M-420.272,895.53c0-2.152.019-4.3,0-6.457a5.026,5.026,0,0,1,1.54-3.769q12.1-12.1,24.2-24.2a4.2,4.2,0,0,1,4.841-1.2,4.373,4.373,0,0,1,2.8,4.331c.06,3.335.071,6.673,0,10.007-.027,1.343.453,1.792,1.78,1.766,3.335-.065,6.672-.055,10.007,0a4.365,4.365,0,0,1,4.322,2.811,4.234,4.234,0,0,1-1.217,4.84q-.227.23-.454.459-11.642,11.643-23.272,23.3a6.139,6.139,0,0,1-4.731,1.984c-4.034-.07-8.071.016-12.106-.044a3.609,3.609,0,0,0-2.831,1.194q-12.8,12.877-25.666,25.7a5.384,5.384,0,0,1-2.933,1.875,4.243,4.243,0,0,1-4.619-2.207,4.3,4.3,0,0,1,.928-5.172q7.275-7.335,14.6-14.62c3.919-3.92,7.824-7.853,11.77-11.744a3.207,3.207,0,0,0,1.058-2.561C-420.315,899.728-420.273,897.628-420.272,895.53Zm24.8-20.613-.581-.089q-7.591,7.569-15.184,15.137a1.927,1.927,0,0,0-.455,1.495c0,2.636.042,5.273-.018,7.907-.027,1.171.476,1.474,1.547,1.454q3.791-.074,7.585,0a2.9,2.9,0,0,0,2.267-.972c4.624-4.659,9.276-9.288,13.907-13.939.269-.27.768-.47.537-1.077-1.863-.086-3.743-.09-5.6-.278a3.962,3.962,0,0,1-3.971-4.065C-395.581,878.642-395.467,876.775-395.467,874.917Z" transform="translate(527.772 -851.482)" fill="#1c549a"/>
      <path id="Trazado_7880" data-name="Trazado 7880" d="M-505,1044.52a24.365,24.365,0,0,0,24.493-23.88c.093-3,1.866-4.947,4.451-4.882,2.494.062,4.1,2.037,4.142,4.987a29.153,29.153,0,0,1-.73,6.4,33.316,33.316,0,0,1-30.409,25.973A33.116,33.116,0,0,1-537.9,1024.2a33.077,33.077,0,0,1,28.007-36.924,27.256,27.256,0,0,1,4.662-.315,4.332,4.332,0,0,1,4.5,4.132,4.277,4.277,0,0,1-4.24,4.4,31.768,31.768,0,0,0-6.688.951,24.633,24.633,0,0,0-17.839,25.691c.643,10.352,9.165,20.027,19.836,22.013A24.548,24.548,0,0,0-505,1044.52Z" transform="translate(588.005 -937.628)" fill="#1c549a"/>
    </g>
  </g>
</svg>
