<svg xmlns="http://www.w3.org/2000/svg" width="281.615" height="283.781" viewBox="0 0 281.615 283.781">
  <g id="Grupo_13786" data-name="Grupo 13786" transform="translate(-399.896 -2829.482)">
    <ellipse id="Elipse_326" data-name="Elipse 326" cx="140.808" cy="141.891" rx="140.808" ry="141.891" transform="translate(399.896 2829.482)" fill="#fff"/>
    <g id="Grupo_13789" data-name="Grupo 13789" transform="translate(461.372 2046.774)">
      <path id="Trazado_7881" data-name="Trazado 7881" d="M-10.254,1002.259c2.682-4.256,6.26-7.734,9.907-11.111a130.428,130.428,0,0,1,48.1-28.564A99.322,99.322,0,0,1,82.636,957.3a107.759,107.759,0,0,1,39.584,9.282,130.5,130.5,0,0,1,41.093,28.048c1.724,1.748,3.354,3.6,4.918,5.494,2.2,2.669,2.206,5.111.007,7.783a110.535,110.535,0,0,1-21.916,19.9c-15.066,10.641-31.5,18.148-49.746,21.434A97.389,97.389,0,0,1,49.6,1046a128.606,128.606,0,0,1-53.337-32.434,39.64,39.64,0,0,1-6.521-7.789Zm90-33.987a35.744,35.744,0,1,0,35.7,35.824A35.8,35.8,0,0,0,79.75,968.273Zm37.823,63.118c.805-.262,1.03-.317,1.24-.406.646-.274,1.3-.54,1.929-.844a131.57,131.57,0,0,0,34.934-24.737c1.1-1.073,1.14-1.667.021-2.765a128.9,128.9,0,0,0-35.087-24.809c-.817-.388-1.659-.726-2.489-1.087A49.536,49.536,0,0,1,126.457,1004,46.569,46.569,0,0,1,117.574,1031.391ZM41.629,976.656a72.985,72.985,0,0,0-9.435,4.6,132.691,132.691,0,0,0-28.645,21.583c-.952.93-.963,1.516.018,2.379,1.623,1.429,3.13,2.989,4.731,4.445a124.425,124.425,0,0,0,31.1,20.8,3.512,3.512,0,0,0,2.068.643C30.08,1013,30.076,995.031,41.629,976.656Z" transform="translate(0 -79.476)" fill="#1c549a"/>
      <path id="Trazado_7882" data-name="Trazado 7882" d="M236.971,834.576a6.16,6.16,0,0,1,3.687,6.367c-.145,3.68-.012,7.369-.046,11.053a5.407,5.407,0,1,1-10.8,0c-.033-3.685.1-7.374-.046-11.053a6.156,6.156,0,0,1,3.687-6.366Z" transform="translate(-155.503)" fill="#1c549a"/>
      <path id="Trazado_7883" data-name="Trazado 7883" d="M118.505,856.233a5.126,5.126,0,0,1,4.3,2.7c2.408,4.139,4.812,8.282,7.1,12.486a5.436,5.436,0,0,1-9.389,5.475c-2.527-4.2-5-8.448-7.267-12.792C111.342,860.455,113.975,856.277,118.505,856.233Z" transform="translate(-79.609 -14.031)" fill="#1c549a"/>
      <path id="Trazado_7884" data-name="Trazado 7884" d="M338.691,856.235c4.412.027,7.2,3.921,5.569,7.387a117.907,117.907,0,0,1-7.8,13.734,5.4,5.4,0,0,1-9.275-5.369c2.417-4.612,5.053-9.113,7.729-13.582A4.56,4.56,0,0,1,338.691,856.235Z" transform="translate(-218.287 -14.033)" fill="#1c549a"/>
      <path id="Trazado_7885" data-name="Trazado 7885" d="M118.508,1281.1c-4.381-.057-7.155-3.99-5.519-7.413a125.391,125.391,0,0,1,7.786-13.7,5.272,5.272,0,0,1,6.894-1.484c2.409,1.346,3.689,4.322,2.419,6.765-2.421,4.658-5.085,9.195-7.788,13.7A4.523,4.523,0,0,1,118.508,1281.1Z" transform="translate(-79.54 -274.22)" fill="#1c549a"/>
      <path id="Trazado_7886" data-name="Trazado 7886" d="M338.79,1281.074a5.1,5.1,0,0,1-4.157-2.664c-2.417-4.148-4.825-8.3-7.122-12.518a5.437,5.437,0,0,1,9.412-5.44c2.5,4.163,4.95,8.369,7.206,12.67C346.093,1276.863,343.406,1281.118,338.79,1281.074Z" transform="translate(-218.387 -274.205)" fill="#1c549a"/>
      <path id="Trazado_7887" data-name="Trazado 7887" d="M229.882,1291.519c0-2.1-.037-4.208.012-6.311a5.473,5.473,0,0,1,5.409-5.322,5.41,5.41,0,0,1,5.356,5.194q.114,6.484,0,12.972a5.219,5.219,0,0,1-5.4,5.082,5.308,5.308,0,0,1-5.37-5.128q-.009-.175-.009-.351Q229.88,1294.587,229.882,1291.519Z" transform="translate(-155.573 -288.511)" fill="#1c549a"/>
      <path id="Trazado_7888" data-name="Trazado 7888" d="M193.584,1056.6a18.19,18.19,0,1,1,18.108,18.191A18.324,18.324,0,0,1,193.584,1056.6Zm18.224-7.248a7.248,7.248,0,1,0,7.215,7.369A7.462,7.462,0,0,0,211.808,1049.353Z" transform="translate(-132.064 -132.06)" fill="#1c549a"/>
    </g>
  </g>
</svg>
