<svg xmlns="http://www.w3.org/2000/svg" width="32.773" height="22.689" viewBox="0 0 32.773 22.689">
  <g id="Grupo_13835" data-name="Grupo 13835" transform="translate(-200 -443.644)">
    <path id="Trazado_5075" data-name="Trazado 5075" d="M35.881,10.362,27.4,19a.152.152,0,0,0,0,.221l5.932,6.318a1.022,1.022,0,0,1,0,1.45,1.027,1.027,0,0,1-1.45,0l-5.909-6.295a.162.162,0,0,0-.228,0l-1.442,1.465a6.343,6.343,0,0,1-4.522,1.907A6.47,6.47,0,0,1,15.169,22.1l-1.387-1.41a.162.162,0,0,0-.228,0L7.645,26.985a1.027,1.027,0,0,1-1.45,0,1.022,1.022,0,0,1,0-1.45l5.932-6.318a.168.168,0,0,0,0-.221L3.643,10.362a.155.155,0,0,0-.268.11V27.749A2.528,2.528,0,0,0,5.9,30.271H33.627a2.528,2.528,0,0,0,2.521-2.521V10.473A.158.158,0,0,0,35.881,10.362Z" transform="translate(196.625 436.062)" fill="#1c549a"/>
    <path id="Trazado_5076" data-name="Trazado 5076" d="M19.659,22.3a4.283,4.283,0,0,0,3.08-1.292L35.1,8.426a2.476,2.476,0,0,0-1.56-.551H5.786a2.46,2.46,0,0,0-1.56.551L16.587,21.008A4.284,4.284,0,0,0,19.659,22.3Z" transform="translate(196.724 435.769)" fill="#1c549a"/>
  </g>
</svg>
