<svg id="Componente_213_32" data-name="Componente 213 – 32" xmlns="http://www.w3.org/2000/svg" width="318.022" height="100.726" viewBox="0 0 318.022 100.726">
  <g id="Grupo_13534" data-name="Grupo 13534">
    <path id="Trazado_5077" data-name="Trazado 5077" d="M127.631,96.293c-1.995-2.11-3.784-4.385-6.108-6.471a19.211,19.211,0,0,1-3.293,5.813,16.1,16.1,0,0,1-2.916,2.7c-1.445,1.1-2.03,1.114-2.284,1.05a.316.316,0,0,1-.22.056c-.009.061-.019.152-.037.287a1.664,1.664,0,0,1-.016-.3.347.347,0,0,1-.1-.028c-.2.027-.7-.077-1.852-.811a6.666,6.666,0,0,1-3.175-6.1c.062-12.152,3.2-23.906,6.084-35.631,1.632-6.282,3.411-13.328,3.274-19.82-.316-9.171-.253-.47-.188-3.477a31.17,31.17,0,0,0-2.072-11.749c-2.4-6.43-6.231-8.926-13.621-8.845a18.792,18.792,0,0,0-12.986,5.265,32.726,32.726,0,0,0-6.465,7.608c-.278-.331-.514-.484-.536-.66a17.941,17.941,0,0,0-4.3-9.05c-6.867-8.866-21.309-6.785-27.807,1.481C47.96,18.846,47.255,20.3,46.1,21.467c-.836-.6-.92-.617-1.015-2.042-.115-1.735-.432-3.2.126-4.848.977-2.878.368-3.456-1.148-3.917-1.982-.6-3.9-.155-5.823.154-2.973.478-5.571,1.925-8.421,2.721C27.8,14.1,25.749,14.6,23.737,15.2c-.4.118-1.189.1-1.031.81.61,2.74.248,5.509.224,8.257-.014,1.533.7,1.624,1.974,1.433a51.5,51.5,0,0,1,7.818-.6c.8,0,.921.176.763.943-1.237,5.856-1.7,11.835-2.768,17.714-.726,3.712-1.218,7.448-1.77,11.178-.833,3.722-1.093,7.56-1.761,11.319-.531,3.357-1.19,6.7-1.709,10.056-.919,7.227-2.149,14.408-3.26,21.6a28.757,28.757,0,0,1-.615,4.008c-.139.62.167.817.853.812,3.886-.021,7.773-.011,11.659-.008.5,0,.878-.005.927-.639.74-8.11,1.375-16.226,2.857-24.243a.411.411,0,0,1,.057-.339c.773-4.833,2.438-11.117,3.562-15.851,3.127-12.3,7.365-29.812,18.664-37.246,3.208-2.124,5.373-1.617,6.868,1.689a23.119,23.119,0,0,1,1.217,8.671,96.932,96.932,0,0,1-.557,11.489c-1.271,10.58-3.174,21.407-5.112,31.45C61.742,83.7,59.82,91.182,58.4,97.284c-.441,1.933-1,3.847-1.354,5.792-.1.545-.658,1.591.874,1.582,3.89-.024,7.782-.014,11.673,0,.7,0,.959-.179.841-1.219a8.721,8.721,0,0,1,.121-2.759c.772-5.759.968-11.548,2.046-17.28a29.333,29.333,0,0,1,1.092-6.009c1.13-2.668,1.262-5.52,1.827-8.289,2.778-12.6,7.12-34.37,19.34-41.105,3.4-1.888,6.053-1.387,7.988,1.739a11.977,11.977,0,0,1,1.468,5.716c.292,4.356-.562,8.617-1.294,12.885-1.546,8.962-2.924,20.209-4.331,29.188a49.278,49.278,0,0,0-1.224,9.986c-.2,6.84-1.1,16.336,4.706,21.322,3.568,2.751,9.82,2.718,13.542,1.247,5.3-2.291,5.378-3.136,8.087-6.267,1.515-1.751,2.437-3.923,3.626-5.905C127.363,97.353,128.212,96.908,127.631,96.293Z" transform="translate(-21.568 -10.362)" fill="#fff"/>
    <path id="Trazado_5078" data-name="Trazado 5078" d="M255.879,51.054c-1.318,5.094-2.656,10.183-3.944,15.284a26.33,26.33,0,0,0-1.078,4.887c-.056.989.245,1.258,1.291.719,1.666-.86,3.071-1.058,4.446-2.854.316,1.349,3,1.86,1.31,3.442-4.31,3.716-9.094,6.665-15.079,7.689-5.26.7-4.094-6.24-3.146-9.563,1.56-5.974,3.449-13.879,4.849-19.27,1.4-5.279,2.848-10.55,4.176-15.844a15.564,15.564,0,0,0,.79-3.847c0-1.178-.6-1.779-1.684-1.764a22.079,22.079,0,0,1-4.209-.392,4.377,4.377,0,0,0,.167-.887c-.046-1.478.58-2,2.346-2.032,4.221-.071,8.308-1.1,12.384-2.013a5.968,5.968,0,0,0,2.155-.711c.428-.208,1.745,1.232,1.52,2.114C259.963,34.331,257.931,42.695,255.879,51.054Z" transform="translate(35.678 -6.801)" fill="#fff"/>
    <path id="Trazado_5079" data-name="Trazado 5079" d="M210.473,46.521a5.711,5.711,0,0,1-5.073,4.505,1.757,1.757,0,0,1-1.726-1.056,6.968,6.968,0,0,0-4.5-3.421c-2.134-.584-4.235.868-5.448,2.989a29.342,29.342,0,0,0-3.7,10.938c-.336,2.658-.859,5.482,1.565,7.819a3.276,3.276,0,0,0,2.176,1.007c2.97.27,5.1-1.493,7.528-2.524a8.191,8.191,0,0,0,2.262-1.418c.809-.732,1.3-.609,1.853.192.5.726,1.094,1.138-.005,2.14a27.624,27.624,0,0,1-12.224,6.8c-4.969,1.4-13.4.954-14.213-5.392-2.5-12.944,9.294-25.014,21.9-26.6a12.843,12.843,0,0,1,8.363,1.233C210.352,44.362,210.459,45.441,210.473,46.521Z" transform="translate(19.809 -1.947)" fill="#fff"/>
    <path id="Trazado_5080" data-name="Trazado 5080" d="M178.864,46.587c-2.171,6.759-5.037,13.319-7.41,20.023-.147.4-.25.853.167,1.184.47.373.829-.062,1.183-.229a18.517,18.517,0,0,0,3.328-1.653c.589-.44,1.325-.552,1.72.214.277.536,1,.915.023,1.789a29.62,29.62,0,0,1-12.454,7.031,12.931,12.931,0,0,1-3.482.155c-1.064-.013-2.068-1.851-1.747-3.478.868-4.412,2.73-8.55,4.233-12.786.908-2.561,1.832-5.118,2.817-7.655.229-.589.558-1.871.015-1.63-1.809.8-.838.443-1.33.623a10.979,10.979,0,0,0-2.431,1.176c-.747.51-1.275.536-1.67-.24-.349-.687-1.25-1.409-.006-2.13,4.276-2.545,8.373-5.466,13.434-6.4C178.923,41.628,178.827,43.878,178.864,46.587Z" transform="translate(14.936 -1.933)" fill="#fff"/>
    <path id="Trazado_5081" data-name="Trazado 5081" d="M175.4,31.408c3.245,0,4.095.759,4.795,2.967a6.639,6.639,0,0,1-2.706,5.668c-1.769,1.343-1.971,1.305-3.29,1.339-4.819.126-5.807-3.3-4.37-6.326C170.9,32.781,172.519,31.927,175.4,31.408Z" transform="translate(17.331 -4.817)" fill="#fff"/>
    <path id="Trazado_5082" data-name="Trazado 5082" d="M135.056,51.967c1.272-.686,2.565-1.342,3.812-2.063a30.58,30.58,0,0,1,14.362-4.072c1.02-.04,2.238,1,2.907.063a10.117,10.117,0,0,0,.863-2.5c.773-2.33,1.651-4.631,2.441-6.955.465-1.373.135-2.323-1.679-2.606-.579-.09-1.148-.1-1.72-.162-.526-.053-1.39.206-1.151-.689.159-.6-.078-1.5,1.183-1.579,1.9-.124,3.781-.426,5.677-.613.494-.048-.045.321,0,0,2.157.035,4.738-1.362,6.837-1.65,3.073-.421,3.432-.115,2.447,2.523-2.166,5.813-4.311,11.634-6.488,17.443a24.928,24.928,0,0,0-1,3.213c-1.592,3.667-1.727,5.2-3,8.954a90.335,90.335,0,0,0-3.079,9.787c-.058.286-.361-.3,0,0a1.075,1.075,0,0,0,1.161.034q1.795-.921,3.538-1.922c.466-.269.963-.948,1.361-.136.294.6,1.5,1.032.533,2.039a12.773,12.773,0,0,1-2.572,2.283c-3.2,1.931-6.081,4.361-10.084,5.04-1.691.138-4.614.845-4.723-1.583a15.082,15.082,0,0,1,1.26-6.607c.235-.662.748-1.3.447-2.059a62.623,62.623,0,0,1-8.645,6.906,18.716,18.716,0,0,1-6.859,3.232c-6.132,1.383-8.31-1.543-8.2-7.089,0-.7.118-.71.118-2.3a26.619,26.619,0,0,1,9.2-16.349A7.78,7.78,0,0,1,135.056,51.967Zm3.1,20.022c3.656-1.661,6.4-4.312,9.126-6.959,1.3-1.26,2.809-2.516,3.539-4.042a53.187,53.187,0,0,0,2.608-7.712c.761-2.528.636-2.754-2.166-3.41-1.169-.273-2.236-.757-3.7-.25a10.063,10.063,0,0,0-4.907,3.049A34.686,34.686,0,0,0,135.713,69.4C136.049,70.252,136.747,72.637,138.16,71.989Z" transform="translate(5.597 -5.455)" fill="#fff"/>
    <path id="Trazado_5083" data-name="Trazado 5083" d="M241.691,46.2c-2.508,6.455-3.867,13.221-5.576,19.9-.593,1.693.334,2.058,1.611,1.087,1.339-.849,2.911-1.426,3.843-2.685.136.03.216.025.24.057,1.654,2.152,1.788,2.526-.684,4.308-3.279,2.365-6.393,5.041-10.7,5.993-1.96.354-5.09.718-5.106-2.011a17.758,17.758,0,0,1,.888-6.389,2.291,2.291,0,0,0,.051-1.423C221.794,69,218.017,73.6,211.793,74.9c-4.574.935-7.037-.484-7.665-5.59C203.042,61,208.32,51.2,215.777,47.1a30.959,30.959,0,0,1,21.759-4.322c1.582.25,3.275-.092,4.742.752A9.809,9.809,0,0,0,241.691,46.2ZM215.1,64.261a4.371,4.371,0,0,0,.915,3.9c.366.4.577.634,1.074.354a37.015,37.015,0,0,0,7.756-6.046c3.854-3.8,5.112-8.614,6.15-13.482.726-2.754-1-2.826-3.525-2.793C219.183,46.056,216.062,57.873,215.1,64.261Z" transform="translate(26.49 -1.942)" fill="#fff"/>
    <path id="Trazado_5084" data-name="Trazado 5084" d="M268.005,37.064c-5.317-.4-8.866-3.592-8.939-8.476a8.579,8.579,0,0,1,8.92-8.828c5.5.062,8.8,3.883,9.029,8.814C277.221,32.975,272.691,37.064,268.005,37.064Zm-7.985-8.506a7.681,7.681,0,0,0,7.962,7.5c4.687-.023,7.847-3.071,8.019-7.578.15-3.956-3.552-8.24-8.192-7.774C264.027,20.144,259.784,24.613,260.02,28.559Z" transform="translate(41 -7.886)" fill="#fff"/>
    <path id="Trazado_5085" data-name="Trazado 5085" d="M199.815,82c.019-3.31.087-6.62.029-9.929-.018-1.051.311-1.324,1.463-1.32q17.515.057,35.032,0c1.152,0,1.481.269,1.463,1.32-.058,3.309.01,6.619.029,9.929-.019,3.951-.081,7.9-.03,11.851.013,1.049-.306,1.327-1.462,1.323q-17.515-.059-35.032,0c-1.156,0-1.474-.274-1.462-1.323C199.9,89.905,199.834,85.955,199.815,82Zm18.527,12.273c4.7,0,4.192,0,5.276-3.591.011-.04-.029-.093-.086-.259-.716,0-1.477-.019-2.238.005-.732.023-.917-.221-.708-.864,1.227-3.779,2.384-7.578,3.65-11.346.786-2.337.854-2.268,3.589-2.25,1.262.008,1.358.407.982,1.346-.483,1.2-.841,2.447-1.3,3.807,1.648,0,3.118,0,4.589,0,.445,0,.663-.071.814-.57.738-2.45,1.591-4.872,2.375-7.31.2-.617.221-1.118-.826-1.114q-12.394.038-24.79.01c-.661,0-1.052.159-1.246.833-.489,1.7-1.107,3.38-1.655,5.07-1,3.082-.991,3.083,2.526,3.082.877-.081,1.929.384,2.063-.929.154-1.159.844-2.246,1.1-3.429a.93.93,0,0,1,1.087-.793c1.1.075,2.208.02,3.38.02-1.382,4.378-2.777,8.6-4.022,12.848-.393,1.344-1.131,1.744-2.561,1.618-.49-.043-1.3-.46-1.552.493-.273,1.054-.653,2.083-1.051,3.322Z" transform="translate(25.391 5.549)" fill="#fff"/>
    <path id="Trazado_5086" data-name="Trazado 5086" d="M183.986,80.17c-.009-1.088.291-2.844,3.376-3.8,3.207-.844,8.719-.423,6.824,4.228a10.213,10.213,0,0,1-1.185.627c-.926.35-1.5,1.21-2.531,1.4.428.879,1.477,1.305,1.909,2.212a.641.641,0,0,0,1.243-.025c1.075-3.082,4.107-2.215,6.675-2.273-.214,1.613-.208,1.634-1.96,1.918-.54.087-.684.449-1,.74-.629.584-.542,1.5-1.318,2-.3.193-.782.4-.452,1a1.419,1.419,0,0,0,1.342.782c.527.044,1.625-.426,1.472.466-.135.782.034,2.182-1.692,2.073-1.461-.092-3.011.377-4.192-1.006-.484-.566-1.332.085-1.99.307a13.58,13.58,0,0,1-8.408.527,4.977,4.977,0,0,1-3.771-3.684c-.557-2.174,1.135-3.4,2.847-4.473C182.139,82.393,185.679,81.9,183.986,80.17Zm4.193,5.411c-1.564-2.135-2.277-2.219-4.512-.672a2.075,2.075,0,0,0,.315,3.739c2.315,1.218,4.267.207,6.454-.708A17.343,17.343,0,0,1,188.179,85.582Zm-.229-6.219c-.033.224.047,1.25,1.035,1.021,1.06-.245,2.3-.406,2.378-1.68.059-.958-.916-.862-1.32-.945C188.452,77.641,188.076,78.5,187.951,79.363Z" transform="translate(19.702 6.937)" fill="#fff"/>
    <path id="Trazado_5087" data-name="Trazado 5087" d="M108.876,47.587a28.247,28.247,0,0,0,2.844-1.812,17.181,17.181,0,0,1,5.483-2.164c5.121-1.32,14.491-3.351,14.669,4.814-.212,1.846,0,0-.277,2.552-3.409,5.8-12.948,8.143-19.218,9.665-2.609.581-3.2,1.333-3.109,3.851.049,3.584,3.865,5.219,6.829,3.939,2.826-1.171,5.827-2.061,8.245-3.938,1.579-1.589,3.159-.368,3.3,1.549.069.838-2.222,1.684-2.854,2.2-3.087,2.471-3.838,2.51-6.322,4.129a19.01,19.01,0,0,1-6.561,2.217c-4.778.982-12.616,1.2-13.708-4.847-.969-4.039.244-7.843,1.828-11.581C101.626,54.38,106.048,50.6,108.876,47.587Zm13.722.729c-.013-.8-2-2.672-2.521-2.7a8.4,8.4,0,0,0-4.15,2.257A24.383,24.383,0,0,0,110.2,58.044C115.152,56.332,122.7,54.461,122.6,48.316Z" transform="translate(-1.472 -1.927)" fill="#fff"/>
    <path id="Trazado_5088" data-name="Trazado 5088" d="M140.944,82c.02-3.31.088-6.62.03-9.929-.019-1.051.31-1.324,1.463-1.32q17.691.057,35.384,0c1.154,0,1.482.269,1.463,1.32-.058,3.309.011,6.619.03,9.929-.02,3.951-.081,7.9-.032,11.851.014,1.049-.3,1.327-1.461,1.323q-17.693-.059-35.387,0c-1.156,0-1.474-.274-1.461-1.323C141.025,89.905,140.964,85.955,140.944,82Zm8.936,6.907c-.292.989-.879,1.186-1.85,1.1-.811-.073-1.805-.154-1.9.844-.085.9-.465,1.744-.635,2.676,5.595,0,11.022-.045,16.448.023a21.579,21.579,0,0,0,6.449-1.009c2.345-.694,4.625-3.483,4.236-5.689-.345-1.955-2.12-2.888-3.409-4.145.234-.366.593-.336.934-.419,3.924-.958,5.668-3.349,3.953-6.776-1.093-2.187-3.521-2.7-5.808-2.78-5.008-.167-10.027-.025-15.041-.075-.967-.009-1.356.341-1.541,1.1-.191.785-.425,1.56-.675,2.474h2.752C152.457,80.536,151.121,84.711,149.88,88.911Zm12.966.8c2.1-.78,3.367-3.322,2.048-4.454-1.349-1.16-3.19-1.169-4.915-.967-1.145.135-.874,1.31-1.234,2.008s-.412,1.507-.753,2.207c-.91,1.867.548,1.534,1.955,1.516A8.178,8.178,0,0,0,162.846,89.711Zm2.38-9.058c1.049-.235,2.509-2.227,2.233-3.022-.426-1.223-1.554-1.275-2.775-1.444-3.51-.586-3.359,2.423-4.178,4.744A11.382,11.382,0,0,0,165.226,80.653Z" transform="translate(9.881 5.549)" fill="#fff"/>
    <path id="Trazado_5089" data-name="Trazado 5089" d="M271.458,31.53c-3.86.045-2.421.282-3.428-1.3a3.542,3.542,0,0,0-2.684-1.715c0,.708-.023,1.371.006,2.034.029.685.049,1.2-1.049,1.2-1.042,0-1.108-.423-1.1-1.159.035-2.183.043-4.368,0-6.551-.016-.75.214-1.041,1.08-1,1.291.059,2.59-.033,3.88.029,1.22.059,2.231.5,2.4,1.749.158,1.131.455,2.392-1.1,2.962-.9.33-.538.624-.118.978A9.971,9.971,0,0,1,271.458,31.53Zm-2.993-5.7c-.038-.9-1.07-.864-1.865-.852-.6.01-1.267-.2-1.282.776-.016,1.108.792.766,1.429.829C267.416,26.509,268.509,26.842,268.465,25.83Z" transform="translate(42.091 -7.023)" fill="#fff"/>
  </g>
</svg>
