<svg xmlns="http://www.w3.org/2000/svg" width="32.773" height="32.773" viewBox="0 0 32.773 32.773">
  <path id="Icon_awesome-phone" data-name="Icon awesome-phone" d="M1.19,1.575,7.847.038a1.546,1.546,0,0,1,1.76.89L12.679,8.1a1.532,1.532,0,0,1-.442,1.792L8.359,13.064A23.723,23.723,0,0,0,19.7,24.407l3.175-3.879a1.535,1.535,0,0,1,1.792-.442l7.169,3.072a1.555,1.555,0,0,1,.9,1.767L31.2,31.582a1.536,1.536,0,0,1-1.5,1.191A29.7,29.7,0,0,1,0,3.072,1.534,1.534,0,0,1,1.19,1.575Z" transform="translate(0.001 0.001)" fill="#ffffff"/>
</svg>
